{"title":"Zumbo's Just Desserts - S01E11 - Semi-Final","uid":15867022,"size":427786688,"categoryP":"video","categoryS":"tv_shows","magnet":"?xt=urn:btih:c33860f2da041871b285161c7c866533ed4016b6&amp;dn=Zumbo%27s+Just+Desserts+-+S01E11+-+Semi-Final&amp;tr=udp%3A%2F%2Ftracker.leechers-paradise.org%3A6969&amp;tr=udp%3A%2F%2Fzer0day.ch%3A1337&amp;tr=udp%3A%2F%2Fopen.demonii.com%3A1337&amp;tr=udp%3A%2F%2Ftracker.coppersurfer.tk%3A6969&amp;tr=udp%3A%2F%2Fexodus.desync.com%3A6969","seeders":9,"leechers":3,"uploader":"Bullrout","files":1,"time":1474379741,"description":"Zumbo's Just Desserts - S01E11 - Semi-Final\r\n\r\nThis episodes sweet sensations task has been seriously up-sized. They'll have to go big or go home.\r\n\r\nComplete name                            : Zumbo's Just Desserts - S01E11 - Semi-Final.mp4\r\nFormat                                   : MPEG-4\r\nFormat profile                           : Base Media / Version 2\r\nCodec ID                                 : mp42 (mp42/isom/avc1)\r\nFile size                                : 408 MiB\r\nDuration                                 : 51 min 7 s\r\nOverall bit rate mode                    : Variable\r\nOverall bit rate                         : 1 115 kb/s\r\n\r\nVideo\r\nID                                       : 2\r\nFormat                                   : AVC\r\nFormat/Info                              : Advanced Video Codec\r\nFormat profile                           :   \r\nFormat settings, CABAC                   : Yes\r\nFormat settings, ReFrames                : 3 frames\r\nCodec ID                                 : avc1\r\nCodec ID/Info                            : Advanced Video Coding\r\nDuration                                 : 51 min 7 s\r\nBit rate mode                            : Variable\r\nBit rate                                 : 984 kb/s\r\nMaximum bit rate                         : 1 000 kb/s\r\nWidth                                    : 720 pixels\r\nHeight                                   : 404 pixels\r\nDisplay aspect ratio                     : 16:9\r\nOriginal display aspect ratio            : 16:9\r\nFrame rate mode                          : Constant\r\nFrame rate                               : 25.000 FPS\r\nStandard                                 : PAL\r\nColor space                              : YUV\r\nChroma subsampling                       : 4:2:0\r\nBit depth                                : 8 bits\r\nScan type                                : Progressive\r\nBits/(Pixel*Frame)                       : 0.135\r\nStream size                              : 360 MiB (88%)\r\nWriting library                          : x264 core 112\r\nColor range                              : Limited\r\nColor primaries                          : BT.601 PAL\r\nTransfer characteristics                 : BT.470 System B, BT.470 System G\r\nMatrix coefficients                      : BT.601\r\n\r\nAudio\r\nID                                       : 1\r\nFormat                                   : AAC\r\nFormat/Info                              : Advanced Audio Codec\r\nFormat profile                           : LC\r\nCodec ID                                 : 40\r\nDuration                                 : 51 min 7 s\r\nBit rate mode                            : Variable\r\nBit rate                                 : 128 kb/s\r\nMaximum bit rate                         : 576 kb/s\r\nChannel(s)                               : 2 channels\r\nChannel positions                        : Front: L R\r\nSampling rate                            : 48.0 kHz\r\nFrame rate                               : 46.875 FPS (1024 spf)\r\nCompression mode                         : Lossy\r\nStream size                              : 46.8 MiB (11%)","torrent":{"xt":"urn:btih:c33860f2da041871b285161c7c866533ed4016b6","amp;dn":"Zumbo%27s+Just+Desserts+-+S01E11+-+Semi-Final","amp;tr":["udp%3A%2F%2Ftracker.leechers-paradise.org%3A6969","udp%3A%2F%2Fzer0day.ch%3A1337","udp%3A%2F%2Fopen.demonii.com%3A1337","udp%3A%2F%2Ftracker.coppersurfer.tk%3A6969","udp%3A%2F%2Fexodus.desync.com%3A6969"],"infoHash":"c33860f2da041871b285161c7c866533ed4016b6","infoHashBuffer":{"type":"Buffer","data":[195,56,96,242,218,4,24,113,178,133,22,28,124,134,101,51,237,64,22,182]},"announce":[],"urlList":[]}}